<svg width="677" height="201" viewBox="0 0 677 201" fill="none" xmlns="http://www.w3.org/2000/svg">
<g filter="url(#filter0_f_11_57)">
<circle cx="101.5" cy="100.5" r="90.5" fill="black"/>
</g>
<circle cx="101.5" cy="100.5" r="90.5" fill="#D9D9D9"/>
<path d="M230.842 97H223.918L243.946 42.4545H250.764L270.793 97H263.868L247.568 51.0838H247.142L230.842 97ZM233.399 75.6932H261.311V81.5526H233.399V75.6932ZM284.722 42.4545V97H278.436V42.4545H284.722ZM302.52 42.4545V97H296.234V42.4545H302.52ZM330.545 113.193C327.509 113.193 324.899 112.803 322.715 112.021C320.531 111.258 318.711 110.246 317.255 108.985C315.817 107.742 314.671 106.411 313.819 104.99L318.826 101.474C319.394 102.22 320.113 103.072 320.983 104.031C321.854 105.008 323.043 105.851 324.552 106.561C326.079 107.289 328.077 107.653 330.545 107.653C333.847 107.653 336.573 106.854 338.721 105.256C340.87 103.658 341.944 101.155 341.944 97.7457V89.4361H341.411C340.95 90.1818 340.293 91.1051 339.441 92.206C338.606 93.2891 337.399 94.2567 335.818 95.109C334.256 95.9435 332.143 96.3608 329.48 96.3608C326.177 96.3608 323.212 95.5795 320.584 94.017C317.974 92.4545 315.905 90.1818 314.378 87.1989C312.869 84.2159 312.115 80.5937 312.115 76.3324C312.115 72.142 312.851 68.4933 314.325 65.386C315.799 62.261 317.85 59.8462 320.477 58.1417C323.105 56.4194 326.142 55.5582 329.586 55.5582C332.249 55.5582 334.362 56.0021 335.925 56.8899C337.505 57.7599 338.713 58.7543 339.547 59.8729C340.399 60.9737 341.056 61.8793 341.518 62.5895H342.157V56.0909H348.23V98.1719C348.23 101.688 347.431 104.546 345.833 106.748C344.252 108.967 342.122 110.592 339.441 111.622C336.777 112.669 333.812 113.193 330.545 113.193ZM330.332 90.7145C332.853 90.7145 334.984 90.1374 336.724 88.9833C338.464 87.8292 339.787 86.169 340.692 84.0028C341.598 81.8366 342.051 79.2443 342.051 76.2259C342.051 73.2784 341.607 70.6772 340.719 68.4222C339.831 66.1673 338.517 64.4006 336.777 63.1222C335.037 61.8437 332.889 61.2045 330.332 61.2045C327.669 61.2045 325.449 61.8793 323.673 63.2287C321.916 64.5781 320.593 66.3892 319.705 68.6619C318.835 70.9347 318.4 73.456 318.4 76.2259C318.4 79.0668 318.844 81.5792 319.732 83.7631C320.637 85.9293 321.969 87.6339 323.727 88.8768C325.502 90.1019 327.704 90.7145 330.332 90.7145ZM371.774 97.9588C369.181 97.9588 366.829 97.4705 364.716 96.494C362.603 95.4996 360.925 94.0703 359.682 92.206C358.439 90.3239 357.818 88.0511 357.818 85.3878C357.818 83.044 358.279 81.1442 359.203 79.6882C360.126 78.2145 361.36 77.0604 362.905 76.2259C364.449 75.3913 366.154 74.7699 368.018 74.3615C369.9 73.9354 371.791 73.598 373.691 73.3494C376.177 73.0298 378.192 72.7901 379.737 72.6303C381.3 72.4528 382.436 72.1598 383.146 71.7514C383.874 71.343 384.238 70.6328 384.238 69.6207V69.4077C384.238 66.7798 383.519 64.7379 382.081 63.282C380.66 61.826 378.503 61.098 375.609 61.098C372.608 61.098 370.256 61.755 368.551 63.0689C366.846 64.3828 365.648 65.7855 364.955 67.277L358.99 65.1463C360.055 62.6605 361.475 60.7251 363.251 59.3402C365.044 57.9375 366.997 56.9609 369.11 56.4105C371.241 55.8423 373.336 55.5582 375.396 55.5582C376.71 55.5582 378.219 55.718 379.923 56.0376C381.646 56.3395 383.306 56.9698 384.904 57.9286C386.52 58.8874 387.86 60.3345 388.926 62.2699C389.991 64.2053 390.524 66.7976 390.524 70.0469V97H384.238V91.4602H383.919C383.492 92.348 382.782 93.2979 381.788 94.31C380.794 95.3221 379.471 96.1832 377.819 96.8935C376.168 97.6037 374.153 97.9588 371.774 97.9588ZM372.732 92.3125C375.218 92.3125 377.313 91.8242 379.018 90.8477C380.74 89.8711 382.036 88.6104 382.906 87.0657C383.794 85.521 384.238 83.8963 384.238 82.1918V76.4389C383.972 76.7585 383.386 77.0515 382.48 77.3178C381.593 77.5664 380.563 77.7884 379.391 77.9837C378.237 78.1612 377.109 78.321 376.008 78.4631C374.925 78.5874 374.046 78.6939 373.372 78.7827C371.738 78.9957 370.211 79.342 368.791 79.8214C367.388 80.283 366.252 80.9844 365.382 81.9254C364.529 82.8487 364.103 84.1094 364.103 85.7074C364.103 87.8913 364.911 89.5426 366.527 90.6612C368.16 91.7621 370.229 92.3125 372.732 92.3125ZM368.151 49.2727C367.033 49.2727 366.039 48.8466 365.169 47.9943C364.316 47.1243 363.89 46.13 363.89 45.0114C363.89 43.7862 364.316 42.7741 365.169 41.9751C366.039 41.1584 367.033 40.75 368.151 40.75C369.377 40.75 370.389 41.1584 371.188 41.9751C372.004 42.7741 372.413 43.7862 372.413 45.0114C372.413 46.13 372.004 47.1243 371.188 47.9943C370.389 48.8466 369.377 49.2727 368.151 49.2727ZM383.492 49.2727C382.374 49.2727 381.379 48.8466 380.509 47.9943C379.657 47.1243 379.231 46.13 379.231 45.0114C379.231 43.7862 379.657 42.7741 380.509 41.9751C381.379 41.1584 382.374 40.75 383.492 40.75C384.718 40.75 385.73 41.1584 386.529 41.9751C387.345 42.7741 387.754 43.7862 387.754 45.0114C387.754 46.13 387.345 47.1243 386.529 47.9943C385.73 48.8466 384.718 49.2727 383.492 49.2727ZM427.777 80.2741V56.0909H434.063V97H427.777V90.0753H427.351C426.392 92.1527 424.901 93.9194 422.877 95.3754C420.853 96.8136 418.296 97.5327 415.206 97.5327C412.649 97.5327 410.377 96.9734 408.388 95.8548C406.399 94.7184 404.837 93.0138 403.701 90.7411C402.564 88.4506 401.996 85.5653 401.996 82.0852V56.0909H408.282V81.6591C408.282 84.642 409.116 87.0213 410.785 88.7969C412.472 90.5724 414.62 91.4602 417.23 91.4602C418.793 91.4602 420.382 91.0607 421.998 90.2617C423.631 89.4627 424.998 88.2376 426.099 86.5863C427.218 84.935 427.777 82.831 427.777 80.2741ZM274.868 121.551H263.202C262.989 120.042 262.554 118.701 261.897 117.529C261.24 116.339 260.397 115.327 259.367 114.493C258.337 113.658 257.147 113.019 255.798 112.575C254.466 112.131 253.019 111.909 251.457 111.909C248.634 111.909 246.174 112.611 244.079 114.013C241.984 115.398 240.359 117.423 239.205 120.086C238.051 122.732 237.474 125.945 237.474 129.727C237.474 133.616 238.051 136.883 239.205 139.528C240.377 142.174 242.011 144.172 244.106 145.521C246.201 146.87 248.625 147.545 251.377 147.545C252.922 147.545 254.351 147.341 255.665 146.933C256.996 146.524 258.177 145.929 259.207 145.148C260.237 144.349 261.089 143.381 261.764 142.245C262.456 141.109 262.936 139.812 263.202 138.357L274.868 138.41C274.566 140.913 273.811 143.328 272.604 145.654C271.414 147.962 269.807 150.031 267.783 151.86C265.777 153.671 263.38 155.109 260.592 156.174C257.822 157.222 254.688 157.746 251.19 157.746C246.325 157.746 241.975 156.645 238.14 154.443C234.322 152.241 231.304 149.054 229.085 144.882C226.883 140.709 225.782 135.658 225.782 129.727C225.782 123.779 226.901 118.719 229.138 114.546C231.375 110.374 234.411 107.195 238.246 105.011C242.082 102.81 246.396 101.709 251.19 101.709C254.351 101.709 257.281 102.153 259.979 103.04C262.696 103.928 265.102 105.224 267.197 106.929C269.292 108.616 270.997 110.684 272.311 113.135C273.642 115.585 274.495 118.39 274.868 121.551ZM301.408 157.799C297.271 157.799 293.693 156.92 290.675 155.162C287.674 153.387 285.357 150.919 283.723 147.758C282.09 144.58 281.273 140.896 281.273 136.705C281.273 132.479 282.09 128.786 283.723 125.626C285.357 122.447 287.674 119.979 290.675 118.222C293.693 116.446 297.271 115.558 301.408 115.558C305.545 115.558 309.114 116.446 312.115 118.222C315.133 119.979 317.459 122.447 319.093 125.626C320.726 128.786 321.543 132.479 321.543 136.705C321.543 140.896 320.726 144.58 319.093 147.758C317.459 150.919 315.133 153.387 312.115 155.162C309.114 156.92 305.545 157.799 301.408 157.799ZM301.461 149.01C303.343 149.01 304.915 148.477 306.175 147.412C307.436 146.329 308.386 144.855 309.025 142.991C309.682 141.126 310.01 139.005 310.01 136.625C310.01 134.246 309.682 132.124 309.025 130.26C308.386 128.396 307.436 126.922 306.175 125.839C304.915 124.756 303.343 124.214 301.461 124.214C299.561 124.214 297.963 124.756 296.667 125.839C295.389 126.922 294.421 128.396 293.764 130.26C293.125 132.124 292.805 134.246 292.805 136.625C292.805 139.005 293.125 141.126 293.764 142.991C294.421 144.855 295.389 146.329 296.667 147.412C297.963 148.477 299.561 149.01 301.461 149.01ZM328.92 157V116.091H339.733V123.309H340.213C341.065 120.912 342.486 119.021 344.474 117.636C346.463 116.251 348.842 115.558 351.612 115.558C354.417 115.558 356.806 116.26 358.776 117.662C360.747 119.047 362.061 120.929 362.718 123.309H363.144C363.979 120.965 365.488 119.092 367.672 117.689C369.874 116.268 372.475 115.558 375.476 115.558C379.293 115.558 382.392 116.775 384.771 119.207C387.168 121.622 388.366 125.049 388.366 129.488V157H377.047V131.725C377.047 129.452 376.443 127.748 375.236 126.611C374.029 125.475 372.519 124.907 370.708 124.907C368.649 124.907 367.042 125.564 365.888 126.877C364.733 128.174 364.156 129.887 364.156 132.018V157H353.157V131.485C353.157 129.479 352.58 127.881 351.426 126.691C350.289 125.501 348.789 124.907 346.925 124.907C345.664 124.907 344.528 125.226 343.515 125.865C342.521 126.487 341.731 127.366 341.145 128.502C340.559 129.621 340.266 130.935 340.266 132.444V157H328.92ZM397.328 172.341V116.091H408.515V122.962H409.021C409.518 121.862 410.237 120.743 411.178 119.607C412.137 118.452 413.38 117.494 414.907 116.73C416.451 115.949 418.369 115.558 420.659 115.558C423.642 115.558 426.395 116.339 428.916 117.902C431.437 119.447 433.452 121.782 434.962 124.907C436.471 128.014 437.225 131.911 437.225 136.599C437.225 141.162 436.489 145.015 435.015 148.158C433.559 151.283 431.57 153.653 429.049 155.269C426.545 156.867 423.74 157.666 420.633 157.666C418.431 157.666 416.558 157.302 415.013 156.574C413.486 155.846 412.234 154.931 411.258 153.831C410.281 152.712 409.536 151.585 409.021 150.448H408.674V172.341H397.328ZM408.435 136.545C408.435 138.978 408.772 141.1 409.447 142.911C410.121 144.722 411.098 146.134 412.376 147.146C413.655 148.14 415.208 148.637 417.037 148.637C418.884 148.637 420.446 148.131 421.725 147.119C423.003 146.089 423.971 144.669 424.628 142.858C425.303 141.029 425.64 138.925 425.64 136.545C425.64 134.184 425.311 132.107 424.654 130.313C423.998 128.52 423.03 127.117 421.751 126.105C420.473 125.093 418.902 124.587 417.037 124.587C415.191 124.587 413.628 125.075 412.35 126.052C411.089 127.028 410.121 128.413 409.447 130.207C408.772 132 408.435 134.113 408.435 136.545ZM463.433 157.799C459.225 157.799 455.603 156.947 452.566 155.242C449.548 153.52 447.222 151.087 445.588 147.945C443.955 144.784 443.138 141.047 443.138 136.732C443.138 132.524 443.955 128.831 445.588 125.652C447.222 122.474 449.521 119.997 452.487 118.222C455.469 116.446 458.967 115.558 462.98 115.558C465.679 115.558 468.191 115.993 470.517 116.863C472.861 117.716 474.903 119.003 476.643 120.725C478.401 122.447 479.768 124.614 480.745 127.224C481.721 129.816 482.21 132.852 482.21 136.332V139.449H447.666V132.417H471.529C471.529 130.784 471.174 129.337 470.464 128.076C469.754 126.815 468.768 125.83 467.508 125.12C466.265 124.392 464.818 124.028 463.167 124.028C461.444 124.028 459.917 124.427 458.586 125.226C457.272 126.007 456.242 127.064 455.496 128.396C454.75 129.71 454.369 131.174 454.351 132.79V139.475C454.351 141.499 454.724 143.248 455.469 144.722C456.233 146.196 457.307 147.332 458.692 148.131C460.077 148.93 461.719 149.33 463.619 149.33C464.88 149.33 466.034 149.152 467.082 148.797C468.129 148.442 469.026 147.909 469.772 147.199C470.517 146.489 471.086 145.619 471.476 144.589L481.97 145.281C481.437 147.803 480.345 150.004 478.694 151.886C477.06 153.751 474.947 155.207 472.355 156.254C469.781 157.284 466.806 157.799 463.433 157.799ZM511.373 116.091V124.614H486.737V116.091H511.373ZM492.33 106.29H503.676V144.429C503.676 145.477 503.836 146.293 504.156 146.879C504.475 147.447 504.919 147.847 505.487 148.078C506.073 148.309 506.748 148.424 507.511 148.424C508.044 148.424 508.577 148.38 509.109 148.291C509.642 148.184 510.05 148.104 510.335 148.051L512.119 156.494C511.551 156.672 510.752 156.876 509.722 157.107C508.692 157.355 507.44 157.506 505.967 157.559C503.232 157.666 500.835 157.302 498.776 156.467C496.734 155.633 495.145 154.337 494.008 152.579C492.872 150.821 492.313 148.602 492.33 145.92V106.29ZM518.764 157V116.091H530.11V157H518.764ZM524.464 110.817C522.777 110.817 521.33 110.258 520.122 109.14C518.933 108.003 518.338 106.645 518.338 105.065C518.338 103.502 518.933 102.162 520.122 101.043C521.33 99.9066 522.777 99.3384 524.464 99.3384C526.15 99.3384 527.589 99.9066 528.778 101.043C529.986 102.162 530.589 103.502 530.589 105.065C530.589 106.645 529.986 108.003 528.778 109.14C527.589 110.258 526.15 110.817 524.464 110.817ZM560.958 116.091V124.614H536.322V116.091H560.958ZM541.915 106.29H553.261V144.429C553.261 145.477 553.421 146.293 553.741 146.879C554.06 147.447 554.504 147.847 555.072 148.078C555.658 148.309 556.333 148.424 557.096 148.424C557.629 148.424 558.162 148.38 558.694 148.291C559.227 148.184 559.635 148.104 559.919 148.051L561.704 156.494C561.136 156.672 560.337 156.876 559.307 157.107C558.277 157.355 557.025 157.506 555.552 157.559C552.817 157.666 550.42 157.302 548.361 156.467C546.319 155.633 544.729 154.337 543.593 152.579C542.457 150.821 541.897 148.602 541.915 145.92V106.29ZM568.349 157V116.091H579.695V157H568.349ZM574.049 110.817C572.362 110.817 570.915 110.258 569.707 109.14C568.518 108.003 567.923 106.645 567.923 105.065C567.923 103.502 568.518 102.162 569.707 101.043C570.915 99.9066 572.362 99.3384 574.049 99.3384C575.735 99.3384 577.174 99.9066 578.363 101.043C579.571 102.162 580.174 103.502 580.174 105.065C580.174 106.645 579.571 108.003 578.363 109.14C577.174 110.258 575.735 110.817 574.049 110.817ZM607.267 157.799C603.13 157.799 599.552 156.92 596.534 155.162C593.533 153.387 591.216 150.919 589.583 147.758C587.949 144.58 587.132 140.896 587.132 136.705C587.132 132.479 587.949 128.786 589.583 125.626C591.216 122.447 593.533 119.979 596.534 118.222C599.552 116.446 603.13 115.558 607.267 115.558C611.404 115.558 614.973 116.446 617.974 118.222C620.992 119.979 623.318 122.447 624.952 125.626C626.585 128.786 627.402 132.479 627.402 136.705C627.402 140.896 626.585 144.58 624.952 147.758C623.318 150.919 620.992 153.387 617.974 155.162C614.973 156.92 611.404 157.799 607.267 157.799ZM607.32 149.01C609.203 149.01 610.774 148.477 612.035 147.412C613.295 146.329 614.245 144.855 614.884 142.991C615.541 141.126 615.87 139.005 615.87 136.625C615.87 134.246 615.541 132.124 614.884 130.26C614.245 128.396 613.295 126.922 612.035 125.839C610.774 124.756 609.203 124.214 607.32 124.214C605.421 124.214 603.823 124.756 602.526 125.839C601.248 126.922 600.28 128.396 599.623 130.26C598.984 132.124 598.665 134.246 598.665 136.625C598.665 139.005 598.984 141.126 599.623 142.991C600.28 144.855 601.248 146.329 602.526 147.412C603.823 148.477 605.421 149.01 607.32 149.01ZM646.126 133.349V157H634.78V116.091H645.593V123.309H646.072C646.978 120.929 648.496 119.047 650.627 117.662C652.757 116.26 655.341 115.558 658.377 115.558C661.218 115.558 663.695 116.18 665.808 117.423C667.921 118.665 669.563 120.441 670.735 122.749C671.907 125.04 672.493 127.774 672.493 130.952V157H661.147V132.977C661.165 130.473 660.525 128.52 659.229 127.117C657.933 125.697 656.149 124.987 653.876 124.987C652.349 124.987 650.999 125.315 649.828 125.972C648.673 126.629 647.768 127.588 647.111 128.848C646.472 130.091 646.143 131.592 646.126 133.349Z" fill="black"/>
<defs>
<filter id="filter0_f_11_57" x="1" y="0" width="201" height="201" filterUnits="userSpaceOnUse" color-interpolation-filters="sRGB">
<feFlood flood-opacity="0" result="BackgroundImageFix"/>
<feBlend mode="normal" in="SourceGraphic" in2="BackgroundImageFix" result="shape"/>
<feGaussianBlur stdDeviation="5" result="effect1_foregroundBlur_11_57"/>
</filter>
</defs>
</svg>
